# Blender v3.0.0 OBJ File: ''
# www.blender.org
mtllib crate.mtl
o crate
v 0.467223 -0.137344 -0.716128
v -0.334052 -0.667593 -0.439009
v -0.818424 0.179215 -0.219235
v -0.017149 0.709464 -0.496354
v 0.818424 -0.179215 0.219235
v 0.017149 -0.709464 0.496354
v 0.334052 0.667593 0.439009
v -0.467223 0.137344 0.716128
vt 1.000000 0.000000
vt 1.000000 1.000000
vt 0.000000 1.000000
vt 0.000000 0.000000
vt 1.000000 0.000000
vt 1.000000 1.000000
vt 0.000000 1.000000
vt 0.000000 0.000000
vt 1.000000 0.000000
vt 1.000000 1.000000
vt 0.000000 1.000000
vt 0.000000 0.000000
vt 1.000000 0.000000
vt 1.000000 1.000000
vt 0.000000 1.000000
vt 0.000000 0.000000
vt 1.000000 0.000000
vt 0.000000 0.000000
vt 1.000000 1.000000
vt 0.000000 1.000000
vn 0.5395 -0.1586 -0.8269
vn -0.3857 -0.7709 -0.5069
vn -0.9450 0.2069 -0.2532
vn -0.0198 0.8192 -0.5731
vn 0.9450 -0.2069 0.2532
vn 0.0198 -0.8192 0.5731
vn 0.3857 0.7709 0.5069
vn -0.5395 0.1586 0.8269
usemtl _Crate1Material
s 1
f 1/1/1 2/2/2 3/3/3
f 3/3/3 4/4/4 1/1/1
f 5/5/5 6/6/6 2/7/2
f 2/7/2 1/8/1 5/5/5
f 7/9/7 8/10/8 6/11/6
f 6/11/6 5/12/5 7/9/7
f 4/13/4 3/14/3 8/15/8
f 8/15/8 7/16/7 4/13/4
f 2/17/2 6/6/6 8/15/8
f 8/15/8 3/18/3 2/17/2
f 5/5/5 1/19/1 4/20/4
f 4/20/4 7/16/7 5/5/5
