# Blender v3.0.0 OBJ File: ''
# www.blender.org
mtllib cylinder.mtl
o Object.1
v -0.251844 -0.100121 0.136979
v -0.251844 -0.100121 0.536978
v -0.251570 -0.089654 0.136979
v 0.130865 -0.181468 0.136978
v 0.126357 -0.190919 0.136978
v 0.130865 -0.181468 0.536978
v 0.126357 -0.190919 0.536978
v 0.121361 -0.200121 0.136978
v -0.251570 -0.110588 0.136979
v -0.250749 -0.121026 0.136979
v 0.115890 -0.209049 0.136978
v 0.121361 -0.200121 0.536978
v 0.115890 -0.209049 0.536978
v 0.109960 -0.217676 0.536978
v 0.109960 -0.217676 0.136978
v -0.249382 -0.131408 0.136979
v -0.247474 -0.141703 0.136978
v 0.103585 -0.225983 0.136978
v -0.245029 -0.151885 0.136978
v 0.096785 -0.233945 0.136978
v 0.096785 -0.233945 0.536978
v 0.103585 -0.225983 0.536978
v 0.057084 0.067613 0.536978
v 0.048156 0.073084 0.536978
v 0.057084 0.067613 0.136979
v 0.065713 0.061683 0.536978
v 0.065713 0.061683 0.136979
v -0.083131 0.097417 0.136979
v -0.072750 0.098783 0.136979
v 0.048156 0.073084 0.136979
v -0.062311 0.099605 0.136979
v 0.038954 0.078080 0.136979
v 0.038954 0.078080 0.536978
v 0.029503 0.082588 0.536978
v 0.089578 -0.241541 0.536978
v 0.089578 -0.241541 0.136978
v 0.081982 -0.248748 0.136978
v -0.238561 -0.171795 0.136978
v -0.242056 -0.161924 0.136978
v -0.238561 -0.171795 0.536978
v -0.242056 -0.161924 0.536978
v -0.245029 -0.151885 0.536978
v -0.247474 -0.141703 0.536978
v -0.250749 -0.121026 0.536978
v -0.249382 -0.131408 0.536978
v -0.251570 -0.110588 0.536978
v -0.251570 -0.089654 0.536978
v -0.234554 -0.181468 0.536978
v -0.250749 -0.079215 0.536978
v -0.250749 -0.079215 0.136979
v 0.134872 -0.171795 0.136978
v 0.138367 -0.161924 0.136978
v 0.138367 -0.161924 0.536978
v 0.134872 -0.171795 0.536978
v 0.103585 0.025743 0.536978
v 0.096785 0.033705 0.536978
v 0.103585 0.025743 0.136979
v 0.109960 0.017436 0.136979
v -0.142642 0.078080 0.136979
v -0.133192 0.082588 0.136979
v 0.096785 0.033705 0.136979
v -0.123518 0.086595 0.136979
v 0.089578 0.041301 0.136979
v 0.089578 0.041301 0.536978
v 0.081982 0.048508 0.536978
v 0.074020 0.055308 0.536978
v 0.081982 0.048508 0.136979
v 0.074020 0.055309 0.136979
v -0.103608 0.093064 0.136979
v -0.093427 0.095509 0.136979
v -0.103608 0.093064 0.536978
v -0.093427 0.095509 0.536978
v -0.083131 0.097417 0.536978
v -0.020557 -0.297658 0.536978
v -0.010262 -0.295750 0.536978
v -0.072750 0.098784 0.536978
v -0.062311 0.099605 0.536978
v -0.000080 -0.293304 0.536978
v 0.009959 -0.290331 0.536978
v -0.051844 0.099879 0.536978
v -0.051844 0.099879 0.136979
v -0.041377 0.099605 0.536978
v -0.041377 0.099605 0.136979
v 0.029503 0.082588 0.136979
v 0.019830 0.086595 0.136979
v 0.019830 0.086595 0.536978
v 0.081982 -0.248748 0.536978
v 0.074020 -0.255547 0.536978
v 0.009959 0.090090 0.536978
v 0.009959 0.090090 0.136979
v -0.000080 0.093064 0.536978
v 0.065713 -0.261923 0.536978
v 0.057084 -0.267852 0.536978
v -0.010262 0.095509 0.536978
v -0.000080 0.093064 0.136979
v -0.010262 0.095509 0.136979
v -0.020557 0.097417 0.136979
v -0.030939 0.098783 0.136979
v -0.030939 0.098784 0.536978
v -0.020557 0.097417 0.536978
v 0.038954 -0.278324 0.536978
v 0.048156 -0.273323 0.536978
v 0.038954 -0.278324 0.136978
v 0.029503 -0.282832 0.136978
v -0.207273 -0.225983 0.136978
v -0.213648 -0.217676 0.136978
v 0.048156 -0.273329 0.136978
v -0.219578 -0.209049 0.136978
v 0.057084 -0.267852 0.136978
v -0.225049 -0.200121 0.136978
v 0.065713 -0.261923 0.136978
v 0.074020 -0.255547 0.136978
v -0.230046 -0.190919 0.136978
v -0.234554 -0.181468 0.136978
v -0.230046 -0.190919 0.536978
v -0.225049 -0.200121 0.536978
v -0.249382 -0.068834 0.536978
v -0.249382 -0.068834 0.136979
v -0.247474 -0.058538 0.136979
v 0.141341 -0.151885 0.136978
v 0.141341 -0.151885 0.536978
v 0.143786 -0.141703 0.536978
v 0.115890 0.008807 0.536978
v 0.109960 0.017436 0.536978
v 0.115890 0.008807 0.136979
v -0.151844 0.073084 0.136979
v -0.160772 0.067613 0.136979
v 0.121361 -0.000121 0.136979
v -0.169401 0.061683 0.136979
v 0.126357 -0.009323 0.136979
v 0.126357 -0.009323 0.536978
v 0.121361 -0.000121 0.536978
v 0.145694 -0.131408 0.536978
v 0.147060 -0.121026 0.536978
v 0.130865 -0.018774 0.536978
v 0.130865 -0.018773 0.136979
v 0.134872 -0.028447 0.536978
v 0.134872 -0.028447 0.136979
v -0.185671 0.048508 0.136979
v -0.177709 0.055309 0.136979
v -0.177709 0.055308 0.536978
v -0.185671 0.048508 0.536978
v -0.193265 0.041301 0.536978
v -0.133192 -0.282832 0.536978
v -0.123518 -0.286836 0.536978
v -0.133192 -0.282832 0.136978
v -0.142642 -0.278324 0.136978
v -0.051844 -0.300121 0.136978
v -0.062311 -0.299846 0.136978
v -0.051844 -0.300121 0.536978
v -0.062311 -0.299846 0.536978
v -0.072750 -0.299027 0.136978
v -0.123518 -0.286836 0.136978
v -0.113648 -0.290331 0.136978
v -0.083131 -0.297658 0.136978
v -0.072750 -0.299027 0.536978
v -0.083131 -0.297658 0.536978
v -0.093427 -0.295750 0.136978
v -0.103608 -0.293304 0.136978
v -0.103608 -0.293304 0.536978
v -0.093427 -0.295750 0.536978
v -0.160772 0.067613 0.536978
v -0.169401 0.061683 0.536978
v -0.113648 -0.290331 0.536978
v -0.151844 0.073084 0.536978
v -0.142642 0.078080 0.536978
v -0.133192 0.082588 0.536978
v -0.123518 0.086595 0.536978
v -0.113648 0.090090 0.536978
v -0.113648 0.090090 0.136979
v -0.041377 -0.299846 0.536978
v -0.030939 -0.299027 0.536978
v -0.041377 -0.299846 0.136978
v -0.030939 -0.299027 0.136978
v -0.151844 -0.273329 0.136978
v -0.160772 -0.267852 0.136978
v -0.020557 -0.297658 0.136978
v -0.169401 -0.261923 0.136978
v -0.010262 -0.295750 0.136978
v -0.000080 -0.293304 0.136978
v -0.177709 -0.255547 0.136978
v -0.185671 -0.248748 0.136978
v 0.009959 -0.290331 0.136978
v -0.193265 -0.241541 0.136978
v 0.019830 -0.286836 0.136978
v 0.019830 -0.286836 0.536978
v 0.029503 -0.282832 0.536978
v -0.200474 -0.233945 0.136978
v -0.200474 -0.233945 0.536978
v -0.193265 -0.241541 0.536978
v -0.185671 -0.248748 0.536978
v -0.230046 -0.009323 0.536978
v -0.234554 -0.018774 0.536978
v -0.230046 -0.009323 0.136979
v -0.225049 -0.000121 0.136979
v 0.147882 -0.089654 0.136979
v 0.148156 -0.100121 0.136979
v 0.147882 -0.089654 0.536978
v 0.148156 -0.100121 0.536978
v 0.147882 -0.110588 0.536978
v 0.147882 -0.110588 0.136979
v -0.234554 -0.018773 0.136979
v -0.238561 -0.028447 0.136979
v 0.147060 -0.121026 0.136979
v -0.242056 -0.038317 0.136979
v 0.145694 -0.131408 0.136979
v -0.245029 -0.048357 0.136979
v 0.143786 -0.141703 0.136978
v -0.247474 -0.058538 0.536978
v -0.245029 -0.048357 0.536978
v -0.242056 -0.038317 0.536978
v -0.213648 -0.217676 0.536978
v -0.207273 -0.225983 0.536978
v -0.238561 -0.028447 0.536978
v -0.219578 -0.209049 0.536978
v 0.138367 -0.038317 0.536978
v 0.138367 -0.038317 0.136979
v 0.141341 -0.048357 0.536978
v 0.141341 -0.048357 0.136979
v -0.200474 0.033705 0.136979
v -0.193265 0.041301 0.136979
v -0.200474 0.033705 0.536978
v -0.142642 -0.278324 0.536978
v -0.151844 -0.273323 0.536978
v -0.207273 0.025743 0.536978
v -0.160772 -0.267852 0.536978
v -0.213648 0.017436 0.536978
v -0.207273 0.025743 0.136979
v -0.213648 0.017436 0.136979
v 0.143786 -0.058538 0.136979
v 0.145694 -0.068834 0.136979
v 0.145694 -0.068834 0.536978
v 0.143786 -0.058538 0.536978
v 0.147061 -0.079215 0.536978
v 0.147061 -0.079215 0.136979
v -0.219578 0.008807 0.136979
v -0.225049 -0.000121 0.536978
v -0.219578 0.008807 0.536978
v -0.177709 -0.255547 0.536978
v -0.169401 -0.261923 0.536978
vn -0.9997 0.0262 0.0000
vn 0.0000 0.0000 -1.0000
vn 0.9026 -0.4305 -0.0000
vn 0.8788 -0.4772 0.0000
vn 0.8527 -0.5225 -0.0000
vn 0.8241 -0.5665 -0.0000
vn 0.7604 -0.6494 -0.0000
vn 0.7933 -0.6088 -0.0000
vn 0.0000 -0.0000 1.0000
vn 0.5225 0.8527 0.0000
vn 0.5664 0.8241 0.0000
vn 0.4772 0.8788 0.0000
vn 0.4305 0.9026 0.0000
vn 0.7254 -0.6883 -0.0000
vn 0.6883 -0.7254 -0.0000
vn -0.9426 -0.3338 -0.0000
vn -0.9588 -0.2840 -0.0000
vn -0.9724 -0.2334 -0.0000
vn -0.9914 -0.1305 -0.0000
vn -0.9833 -0.1822 -0.0000
vn -0.9969 -0.0785 -0.0000
vn -0.9997 -0.0262 -0.0000
vn 0.0001 0.0000 1.0000
vn -0.9969 0.0785 0.0000
vn 0.9426 -0.3338 -0.0000
vn 0.9239 -0.3827 -0.0000
vn 0.7604 0.6495 0.0000
vn 0.7934 0.6088 0.0000
vn 0.7254 0.6883 0.0000
vn 0.6883 0.7254 0.0000
vn 0.6495 0.7604 0.0000
vn -0.2334 0.9724 0.0000
vn -0.1822 0.9833 0.0000
vn -0.1305 0.9914 -0.0000
vn -0.0785 0.9969 -0.0000
vn -0.0262 0.9997 0.0000
vn 0.0262 0.9997 0.0000
vn 0.3827 0.9239 0.0000
vn 0.3338 0.9426 0.0000
vn 0.2840 0.9588 0.0000
vn 0.2334 0.9724 0.0000
vn 0.1305 0.9915 -0.0000
vn 0.1305 0.9914 0.0000
vn 0.4775 -0.8786 -0.0000
vn 0.4305 -0.9026 -0.0000
vn 0.5229 -0.8524 0.0000
vn 0.5225 -0.8527 -0.0000
vn 0.5663 -0.8242 -0.0000
vn 0.6089 -0.7933 -0.0000
vn -0.9026 -0.4305 -0.0000
vn -0.8788 -0.4772 0.0000
vn -0.9914 0.1305 0.0000
vn -0.9833 0.1822 0.0000
vn 0.9588 -0.2840 -0.0000
vn 0.9724 -0.2335 -0.0000
vn 0.8241 0.5664 0.0000
vn 0.8788 0.4772 0.0000
vn 0.8527 0.5225 0.0000
vn 0.9026 0.4305 0.0000
vn 0.9239 0.3827 0.0000
vn -0.6495 0.7604 0.0000
vn -0.6884 0.7254 0.0000
vn -0.3825 -0.9240 -0.0000
vn -0.4306 -0.9026 -0.0000
vn -0.0263 -0.9997 -0.0000
vn -0.0782 -0.9969 0.0000
vn -0.1307 -0.9914 -0.0000
vn -0.1822 -0.9833 0.0000
vn -0.2336 -0.9723 -0.0000
vn -0.5664 0.8241 0.0000
vn -0.6087 0.7934 0.0000
vn -0.3337 -0.9427 -0.0000
vn -0.2839 -0.9588 -0.0000
vn -0.5225 0.8527 0.0000
vn -0.4772 0.8788 0.0000
vn -0.4305 0.9026 0.0000
vn -0.3827 0.9239 0.0000
vn -0.3338 0.9426 0.0000
vn -0.2840 0.9588 0.0000
vn 0.0782 -0.9969 -0.0000
vn 0.0263 -0.9997 -0.0000
vn 0.1307 -0.9914 -0.0000
vn 0.1822 -0.9833 0.0000
vn 0.2336 -0.9723 -0.0000
vn 0.3337 -0.9427 0.0000
vn 0.3825 -0.9240 -0.0000
vn -0.7254 -0.6883 -0.0000
vn -0.6883 -0.7254 -0.0000
vn -0.9026 0.4305 0.0000
vn -0.8788 0.4772 0.0000
vn 0.9997 0.0262 0.0000
vn 0.9997 -0.0262 -0.0000
vn 0.9915 -0.1305 -0.0000
vn 0.9969 -0.0785 -0.0000
vn 0.9833 -0.1822 -0.0000
vn -0.9724 0.2335 0.0000
vn -0.9588 0.2840 0.0000
vn -0.9426 0.3338 0.0000
vn -0.9239 0.3827 0.0000
vn -0.7605 -0.6494 -0.0000
vn -0.7933 -0.6088 -0.0000
vn -0.8241 -0.5664 -0.0000
vn -0.8526 -0.5225 -0.0000
vn 0.9426 0.3338 0.0000
vn 0.9588 0.2840 0.0000
vn -0.7254 0.6884 0.0000
vn -0.7933 0.6088 0.0000
vn -0.7604 0.6494 0.0000
vn 0.9833 0.1822 -0.0000
vn 0.9724 0.2334 0.0000
vn -0.0001 0.0000 1.0000
vn 0.0003 0.0000 1.0000
vn 0.9914 0.1305 0.0000
vn 0.9969 0.0785 0.0000
vn -0.8526 0.5225 0.0000
vn -0.8242 0.5664 0.0000
vn -0.6089 -0.7933 -0.0000
vn -0.6088 -0.7933 0.0000
vn -0.6494 -0.7604 -0.0000
vn -0.5663 -0.8242 -0.0000
vn -0.5225 -0.8527 -0.0000
vn -0.4775 -0.8786 -0.0000
vn -0.4771 -0.8789 0.0000
vn 0.9724 0.2335 0.0000
vn 0.2839 -0.9588 -0.0000
vn -0.5229 -0.8524 0.0000
vn 0.9724 -0.2334 -0.0000
vn -0.9239 -0.3827 -0.0000
vn 0.6494 -0.7604 -0.0000
vn 0.4771 -0.8788 0.0000
vn 0.0785 0.9969 -0.0000
vn 0.1822 0.9833 0.0000
vn 0.6088 0.7934 0.0000
vn -0.1305 0.9915 0.0000
usemtl Turquoise_0
s off
f 1//1 2//1 3//1
f 1//2 3//2 4//2
f 5//2 1//2 4//2
f 4//3 6//3 5//3
f 5//3 6//3 7//3
f 5//4 7//4 8//4
f 8//2 9//2 5//2
f 10//2 9//2 8//2
f 11//2 10//2 8//2
f 8//5 12//5 11//5
f 11//5 12//5 13//5
f 13//6 14//6 11//6
f 14//6 15//6 11//6
f 15//2 16//2 11//2
f 17//2 16//2 15//2
f 18//2 17//2 15//2
f 19//2 17//2 18//2
f 20//2 19//2 18//2
f 21//7 20//7 18//7
f 22//7 21//7 18//7
f 18//8 14//8 22//8
f 22//9 14//9 23//9
f 24//9 22//9 23//9
f 25//10 24//10 23//10
f 23//11 26//11 25//11
f 26//11 27//11 25//11
f 27//2 28//2 25//2
f 28//2 29//2 25//2
f 25//2 29//2 30//2
f 29//2 31//2 30//2
f 30//2 31//2 32//2
f 24//12 30//12 32//12
f 33//12 24//12 32//12
f 32//13 34//13 33//13
f 34//9 35//9 33//9
f 35//9 21//9 33//9
f 36//14 21//14 35//14
f 36//15 35//15 37//15
f 37//2 38//2 36//2
f 38//2 39//2 36//2
f 36//2 39//2 20//2
f 38//16 40//16 39//16
f 39//16 40//16 41//16
f 39//17 41//17 19//17
f 19//17 41//17 42//17
f 42//18 43//18 19//18
f 43//9 42//9 44//9
f 45//9 43//9 44//9
f 45//19 44//19 16//19
f 44//19 10//19 16//19
f 16//20 43//20 45//20
f 44//9 42//9 46//9
f 9//21 44//21 46//21
f 9//22 46//22 1//22
f 42//9 41//9 46//9
f 46//23 41//23 2//23
f 41//9 40//9 2//9
f 2//9 40//9 47//9
f 40//9 48//9 47//9
f 47//9 48//9 49//9
f 47//24 49//24 3//24
f 49//24 50//24 3//24
f 3//2 50//2 51//2
f 51//2 50//2 52//2
f 52//25 53//25 51//25
f 51//25 53//25 54//25
f 51//26 54//26 4//26
f 54//9 53//9 55//9
f 56//9 54//9 55//9
f 57//27 56//27 55//27
f 57//28 55//28 58//28
f 58//2 59//2 57//2
f 59//2 60//2 57//2
f 57//2 60//2 61//2
f 60//2 62//2 61//2
f 61//2 62//2 63//2
f 56//29 61//29 63//29
f 64//29 56//29 63//29
f 63//30 65//30 64//30
f 65//9 7//9 64//9
f 12//9 7//9 65//9
f 66//9 12//9 65//9
f 67//31 66//31 65//31
f 68//31 66//31 67//31
f 67//2 69//2 68//2
f 69//2 70//2 68//2
f 68//2 70//2 27//2
f 69//32 71//32 70//32
f 70//32 71//32 72//32
f 70//33 72//33 28//33
f 28//33 72//33 73//33
f 72//9 74//9 73//9
f 74//9 75//9 73//9
f 73//9 75//9 76//9
f 29//34 73//34 76//34
f 76//35 77//35 29//35
f 76//9 78//9 77//9
f 78//9 79//9 77//9
f 77//9 79//9 80//9
f 81//36 77//36 80//36
f 80//37 82//37 81//37
f 82//37 83//37 81//37
f 81//2 83//2 84//2
f 32//2 81//2 84//2
f 84//2 83//2 85//2
f 85//38 86//38 84//38
f 84//38 86//38 34//38
f 86//9 87//9 34//9
f 88//9 87//9 86//9
f 89//9 88//9 86//9
f 89//39 86//39 90//39
f 90//40 91//40 89//40
f 91//9 92//9 89//9
f 93//9 92//9 91//9
f 94//9 93//9 91//9
f 95//41 94//41 91//41
f 96//41 94//41 95//41
f 97//2 96//2 95//2
f 90//2 97//2 95//2
f 98//2 97//2 90//2
f 85//2 98//2 90//2
f 98//42 99//42 97//42
f 97//43 99//43 100//43
f 99//9 101//9 100//9
f 101//9 102//9 100//9
f 100//9 102//9 94//9
f 103//44 102//44 101//44
f 103//45 101//45 104//45
f 104//2 105//2 103//2
f 105//2 106//2 103//2
f 103//2 106//2 107//2
f 106//2 108//2 107//2
f 107//2 108//2 109//2
f 102//46 107//46 109//46
f 93//47 102//47 109//47
f 108//2 110//2 109//2
f 109//2 110//2 111//2
f 111//48 92//48 109//48
f 111//49 88//49 92//49
f 112//49 88//49 111//49
f 111//2 113//2 112//2
f 113//2 114//2 112//2
f 112//2 114//2 37//2
f 48//50 114//50 113//50
f 115//50 48//50 113//50
f 113//51 116//51 115//51
f 115//9 116//9 117//9
f 49//9 115//9 117//9
f 118//52 49//52 117//52
f 118//53 117//53 119//53
f 118//2 119//2 120//2
f 52//2 118//2 120//2
f 120//54 121//54 52//54
f 120//55 122//55 121//55
f 121//9 122//9 123//9
f 124//9 121//9 123//9
f 124//56 123//56 58//56
f 123//56 125//56 58//56
f 125//2 126//2 58//2
f 127//2 126//2 125//2
f 128//2 127//2 125//2
f 129//2 127//2 128//2
f 130//2 129//2 128//2
f 131//57 130//57 128//57
f 132//57 131//57 128//57
f 128//58 123//58 132//58
f 132//9 133//9 131//9
f 133//9 134//9 131//9
f 131//9 134//9 135//9
f 136//59 131//59 135//59
f 135//60 137//60 136//60
f 137//60 138//60 136//60
f 138//2 139//2 136//2
f 139//2 140//2 136//2
f 136//2 140//2 130//2
f 141//61 140//61 139//61
f 142//61 141//61 139//61
f 139//62 143//62 142//62
f 143//9 144//9 142//9
f 144//9 145//9 142//9
f 146//63 145//63 144//63
f 146//64 144//64 147//64
f 146//2 147//2 148//2
f 149//2 146//2 148//2
f 148//65 150//65 149//65
f 149//65 150//65 151//65
f 149//66 151//66 152//66
f 152//2 153//2 149//2
f 154//2 153//2 152//2
f 155//2 154//2 152//2
f 152//67 156//67 155//67
f 155//67 156//67 157//67
f 155//68 157//68 158//68
f 158//2 159//2 155//2
f 160//69 159//69 158//69
f 161//69 160//69 158//69
f 160//9 161//9 162//9
f 163//9 160//9 162//9
f 163//70 162//70 129//70
f 163//71 129//71 140//71
f 164//9 160//9 163//9
f 141//9 164//9 163//9
f 145//9 164//9 141//9
f 153//72 164//72 145//72
f 154//73 160//73 164//73
f 162//9 161//9 165//9
f 126//74 162//74 165//74
f 126//75 165//75 59//75
f 59//75 165//75 166//75
f 165//9 157//9 166//9
f 161//9 157//9 165//9
f 159//73 160//73 154//73
f 158//68 157//68 161//68
f 157//9 156//9 166//9
f 166//9 156//9 167//9
f 60//76 166//76 167//76
f 167//77 168//77 60//77
f 167//9 151//9 168//9
f 156//9 151//9 167//9
f 159//2 154//2 155//2
f 154//72 164//72 153//72
f 152//66 151//66 156//66
f 151//9 150//9 168//9
f 168//9 150//9 169//9
f 170//78 168//78 169//78
f 169//79 71//79 170//79
f 169//9 171//9 71//9
f 171//9 172//9 71//9
f 173//80 172//80 171//80
f 173//81 171//81 148//81
f 174//80 172//80 173//80
f 173//2 175//2 174//2
f 175//2 176//2 174//2
f 174//2 176//2 177//2
f 177//82 74//82 174//82
f 176//2 178//2 177//2
f 177//2 178//2 179//2
f 179//83 75//83 177//83
f 179//84 78//84 75//84
f 180//84 78//84 179//84
f 179//2 181//2 180//2
f 181//2 182//2 180//2
f 180//2 182//2 183//2
f 182//2 184//2 183//2
f 183//2 184//2 185//2
f 185//85 186//85 183//85
f 183//85 186//85 79//85
f 185//86 187//86 186//86
f 186//9 187//9 82//9
f 82//9 187//9 99//9
f 104//86 187//86 185//86
f 185//2 188//2 104//2
f 184//2 188//2 185//2
f 189//87 188//87 184//87
f 190//87 189//87 184//87
f 184//88 191//88 190//88
f 190//9 191//9 192//9
f 193//9 190//9 192//9
f 194//89 193//89 192//89
f 194//90 192//90 195//90
f 194//2 195//2 196//2
f 197//2 194//2 196//2
f 196//91 198//91 197//91
f 197//91 198//91 199//91
f 199//92 200//92 197//92
f 200//92 201//92 197//92
f 201//2 202//2 197//2
f 203//2 202//2 201//2
f 204//2 203//2 201//2
f 205//2 203//2 204//2
f 206//2 205//2 204//2
f 204//93 134//93 206//93
f 204//94 200//94 134//94
f 207//2 205//2 206//2
f 208//2 207//2 206//2
f 206//95 133//95 208//95
f 208//95 133//95 122//95
f 119//2 207//2 208//2
f 119//96 209//96 207//96
f 207//96 209//96 210//96
f 210//97 211//97 207//97
f 210//9 212//9 211//9
f 212//9 213//9 211//9
f 211//9 213//9 214//9
f 203//98 211//98 214//98
f 213//9 189//9 214//9
f 214//9 189//9 193//9
f 202//99 214//99 193//99
f 105//100 189//100 213//100
f 106//101 213//101 212//101
f 212//102 215//102 106//102
f 215//9 212//9 210//9
f 209//9 215//9 210//9
f 116//9 215//9 209//9
f 110//103 215//103 116//103
f 211//97 205//97 207//97
f 205//98 211//98 203//98
f 203//99 214//99 202//99
f 201//94 200//94 204//94
f 200//9 199//9 137//9
f 137//9 199//9 216//9
f 217//104 137//104 216//104
f 216//105 218//105 217//105
f 218//105 219//105 217//105
f 219//2 220//2 217//2
f 220//2 221//2 217//2
f 217//2 221//2 138//2
f 220//106 222//106 221//106
f 221//106 222//106 143//106
f 222//9 223//9 143//9
f 224//9 223//9 222//9
f 225//9 224//9 222//9
f 226//9 224//9 225//9
f 227//9 226//9 225//9
f 228//107 227//107 225//107
f 228//108 225//108 220//108
f 229//107 227//107 228//107
f 229//2 228//2 230//2
f 231//2 229//2 230//2
f 232//109 231//109 230//109
f 233//109 232//109 230//109
f 230//110 218//110 233//110
f 218//111 234//111 233//111
f 198//9 234//9 218//9
f 232//112 233//112 234//112
f 235//113 232//113 234//113
f 235//114 234//114 196//114
f 231//113 232//113 235//113
f 235//2 236//2 231//2
f 195//2 236//2 235//2
f 195//115 237//115 236//115
f 236//115 237//115 238//115
f 236//116 238//116 229//116
f 237//9 239//9 238//9
f 239//9 240//9 238//9
f 238//9 240//9 227//9
f 181//117 240//117 239//117
f 178//118 240//118 181//118
f 191//9 239//9 237//9
f 182//119 239//119 191//119
f 236//2 229//2 231//2
f 230//2 228//2 219//2
f 229//116 238//116 227//116
f 240//9 226//9 227//9
f 226//120 240//120 176//120
f 176//121 224//121 226//121
f 223//122 224//122 147//122
f 224//123 175//123 147//123
f 220//108 225//108 222//108
f 228//2 220//2 219//2
f 219//124 218//124 230//124
f 216//9 198//9 218//9
f 199//9 198//9 216//9
f 196//114 234//114 198//114
f 202//2 194//2 197//2
f 196//2 195//2 235//2
f 195//90 192//90 237//90
f 202//89 193//89 194//89
f 192//9 191//9 237//9
f 189//9 190//9 193//9
f 188//100 189//100 105//100
f 182//88 191//88 184//88
f 181//119 239//119 182//119
f 78//125 180//125 183//125
f 178//2 181//2 179//2
f 240//120 178//120 176//120
f 175//126 224//126 176//126
f 147//2 175//2 173//2
f 174//82 74//82 172//82
f 62//78 168//78 170//78
f 150//9 171//9 169//9
f 148//81 171//81 150//81
f 153//2 146//2 149//2
f 148//2 147//2 173//2
f 147//64 144//64 223//64
f 153//63 145//63 146//63
f 223//9 144//9 143//9
f 221//62 143//62 139//62
f 142//9 145//9 141//9
f 141//71 163//71 140//71
f 221//2 139//2 138//2
f 138//104 137//104 217//104
f 135//9 200//9 137//9
f 134//9 200//9 135//9
f 206//93 134//93 133//93
f 122//9 133//9 132//9
f 130//59 131//59 136//59
f 140//2 129//2 130//2
f 162//70 127//70 129//70
f 127//74 162//74 126//74
f 125//58 123//58 128//58
f 53//9 121//9 124//9
f 123//9 122//9 132//9
f 208//127 122//127 120//127
f 120//2 119//2 208//2
f 119//53 117//53 209//53
f 117//9 116//9 209//9
f 110//51 116//51 113//51
f 114//128 48//128 38//128
f 88//129 112//129 37//129
f 110//2 113//2 111//2
f 108//103 215//103 110//103
f 215//102 108//102 106//102
f 105//101 213//101 106//101
f 188//2 105//2 104//2
f 104//45 101//45 187//45
f 107//130 102//130 103//130
f 187//9 101//9 99//9
f 98//131 82//131 99//131
f 97//132 100//132 96//132
f 96//132 100//132 94//132
f 102//9 93//9 94//9
f 109//48 92//48 93//48
f 95//40 91//40 90//40
f 92//9 88//9 89//9
f 87//129 88//129 37//129
f 86//39 85//39 90//39
f 83//2 98//2 85//2
f 83//131 82//131 98//131
f 80//9 186//9 82//9
f 31//36 77//36 81//36
f 79//9 186//9 80//9
f 79//125 78//125 183//125
f 75//9 78//9 76//9
f 177//83 75//83 74//83
f 172//9 74//9 72//9
f 71//9 172//9 72//9
f 71//79 69//79 170//79
f 170//2 69//2 67//2
f 63//2 170//2 67//2
f 68//133 26//133 66//133
f 26//9 13//9 66//9
f 67//30 65//30 63//30
f 64//9 6//9 56//9
f 62//2 170//2 63//2
f 168//77 62//77 60//77
f 59//76 166//76 60//76
f 126//2 59//2 58//2
f 58//28 55//28 124//28
f 61//27 56//27 57//27
f 6//9 54//9 56//9
f 55//9 53//9 124//9
f 52//54 121//54 53//54
f 50//2 118//2 52//2
f 50//52 49//52 118//52
f 48//9 115//9 49//9
f 38//128 48//128 40//128
f 114//2 38//2 37//2
f 37//15 35//15 87//15
f 87//9 35//9 34//9
f 84//13 34//13 32//13
f 33//9 21//9 24//9
f 31//2 81//2 32//2
f 77//35 31//35 29//35
f 28//134 73//134 29//134
f 70//2 28//2 27//2
f 27//133 26//133 68//133
f 30//10 24//10 25//10
f 23//9 14//9 26//9
f 21//9 22//9 24//9
f 20//14 21//14 36//14
f 39//2 19//2 20//2
f 43//18 17//18 19//18
f 17//20 43//20 16//20
f 15//8 14//8 18//8
f 14//9 13//9 26//9
f 13//9 12//9 66//9
f 16//2 10//2 11//2
f 10//21 44//21 9//21
f 8//4 7//4 12//4
f 7//9 6//9 64//9
f 4//26 54//26 6//26
f 9//2 1//2 5//2
f 4//2 3//2 51//2
f 3//1 2//1 47//1
f 1//22 46//22 2//22
